<svg xmlns="http://www.w3.org/2000/svg" viewBox="0 0 102 200" fill="#f2f2f2">
	<path d="M93.4 59.3v-.6h-.3C77.5 24.1 42.8 0 2.8 0H0v200h2.8c54.7 0 99.2-44.9 99.2-100.1 0-14.3-3.1-28.1-8.6-40.6zm3 37.3H72.1c-.3-11.1-1.9-22-4.7-32.2h21.9c4.2 9.9 6.6 20.7 7.1 32.2zm-9.5-37.9H65.7c-4.2-12.6-10.2-23.9-17.8-33h12.5c11.1 8.8 20.3 20.1 26.5 33zm-25.4 5.6c3 10.1 4.6 21 4.9 32.2H35.6c-.3-11.1-2.1-22-5.2-32.2h31.1zm-33-5.6c-4.6-12.6-11.3-23.9-19.7-33h31.4c8.3 8.6 15 20.1 19.4 33H28.5zm2.2 76.2c3.1-10.4 4.7-21.4 5-32.7h30.8c-.1 11.4-1.8 22.4-4.7 32.7H30.7zm29.2 5.7c-4.4 13.2-11.1 25-19.7 33.7H8.7c8.6-9.4 15.4-20.8 20-33.7h31.2zM52.3 20.1H34.7c3.4-1.3 6.7-2.8 9.9-4.5 2.7 1.3 5.2 2.8 7.7 4.5zM5.6 5.8C17 6.1 27.9 8.5 38 12.6c-9.8 4.5-20.9 7-32.3 7.3V5.8zm0 24.8c7.1 7.9 12.7 17.4 16.9 28.1H5.6V30.6zm0 33.7h18.8c3.3 10.1 5.2 21 5.5 32.2H5.6V64.3zm0 37.9h24.3c-.1 11.4-2.1 22.4-5.2 32.7H5.6v-32.7zm0 38.5h17c-4 10.8-9.8 20.7-17 28.7v-28.7zm0 53.7v-14.3c11.4.4 22.2 3.1 31.9 7.6-9.9 4-20.6 6.4-31.9 6.7zm38.6-9.7c-3.4-1.9-7.1-3.4-10.8-4.9h19.3c-2.7 1.9-5.6 3.4-8.5 4.9zm16.1-10.3v-.3H47.9c7.7-9.2 13.8-20.8 17.9-33.7h21.5c-6.2 13.5-15.5 25.1-27 34zm29.5-39.5H67.6c2.8-10.4 4.3-21.4 4.4-32.7h24.3c-.2 11.6-2.5 22.6-6.5 32.7z"/>
</svg>
