<svg xmlns="http://www.w3.org/2000/svg" viewBox="0 0 102 200" fill="#f2f2f2">
	<path d="M8.6 140.7v.6h.3C24.5 175.9 59.2 200 99.2 200h2.8V0h-2.8C44.5 0 0 44.9 0 100.1c0 14.3 3.1 28.1 8.6 40.6zm-3-37.3h24.3c.3 11.1 1.9 22 4.7 32.2H12.7c-4.2-9.9-6.6-20.7-7.1-32.2zm9.5 37.9h21.2c4.2 12.6 10.2 23.9 17.8 33H41.6c-11.1-8.8-20.3-20.1-26.5-33zm25.4-5.6c-3-10.1-4.6-21-4.9-32.2h30.8c.3 11.1 2.1 22 5.2 32.2H40.5zm33 5.6c4.6 12.6 11.3 23.9 19.7 33H61.8c-8.3-8.6-15-20.1-19.4-33h31.1zm-2.2-76.2c-3.1 10.4-4.7 21.4-5 32.7H35.5c.1-11.4 1.8-22.4 4.7-32.7h31.1zm-29.2-5.7c4.4-13.2 11.1-25 19.7-33.7h31.5c-8.6 9.4-15.4 20.8-20 33.7H42.1zm7.6 120.5h17.6c-3.4 1.3-6.7 2.8-9.9 4.5-2.7-1.3-5.2-2.8-7.7-4.5zm46.7 14.3c-11.4-.3-22.3-2.7-32.4-6.8 9.8-4.5 20.9-7 32.3-7.3l.1 14.1zm0-24.8c-7.1-7.9-12.7-17.4-16.9-28.1h16.9v28.1zm0-33.7H77.6c-3.3-10.1-5.2-21-5.5-32.2h24.3v32.2zm0-37.9H72.1c.1-11.4 2.1-22.4 5.2-32.7h19.1v32.7zm0-38.5h-17c4-10.8 9.8-20.7 17-28.7v28.7zm0-53.7v14.3c-11.4-.4-22.2-3.1-31.9-7.6 9.9-4 20.6-6.4 31.9-6.7zm-38.6 9.7c3.4 1.9 7.1 3.4 10.8 4.9H49.3c2.7-1.9 5.6-3.4 8.5-4.9zM41.7 25.6v.3h12.4c-7.7 9.2-13.8 20.8-17.9 33.7H14.7c6.2-13.5 15.5-25.1 27-34zM12.2 65.1h22.2c-2.8 10.4-4.3 21.4-4.4 32.7H5.7c.2-11.6 2.5-22.6 6.5-32.7z"/>
</svg>
