<svg xmlns="http://www.w3.org/2000/svg" viewBox="0 0 200 200" fill="#fff">
	<path d="M25.2 160.3l-3.6 11.1h7.3l-3.7-11.1zm-3.1-5.2h6.2l9.4 26.1h-5.6l-1.8-5.4H20.2l-1.7 5.4h-5.7l9.3-26.1zm32 9.9c.4-1.3 1.2-2.6 2.4-3.9l3.9 1.8c-1.1 1.7-1.7 3.4-1.7 5.3v13.5c0 2-.5 3.7-1.6 5.1-1.1 1.4-2.6 2.3-4.5 2.8s-4 .4-6.2-.1-3.7-1.8-4.6-3.8l4.4-2c.9 1.6 2.3 2.2 4 1.9 1.8-.3 2.9-1.3 3.3-2.9.2-.7.2-1.4.1-2.1-.1-.7-.1-1.4-.1-2-1.3 2-3.2 3-5.7 3-2.4 0-4.3-.9-5.7-2.8-1.5-1.9-2.2-4.4-2.2-7.4s.7-5.4 2.2-7.3c1.4-1.9 3.4-2.8 5.8-2.8 1.4 0 2.6.3 3.5 1 1.1.7 1.9 1.5 2.7 2.7zm-8.9 6.6c0 1.4.3 2.6.9 3.8.6 1.2 1.7 1.8 3.3 1.8s2.8-.6 3.4-1.8c.6-1.2.9-2.5.9-3.9s-.3-2.8-.8-4c-.5-1.3-1.7-1.9-3.4-1.9s-2.8.6-3.4 1.9-.9 2.7-.9 4.1zm18.1 9.7v-12c0-.6 0-1.2-.1-1.7s-.1-1-.2-1.4c-.1-.8-.5-1.7-1.1-2.9l4.3-2.4c.4.5.8 1.1 1.2 1.9.4.8.7 1.5.8 2.2.8-1.6 1.7-2.7 2.8-3.2 1.1-.5 2.2-.7 3.5-.6v5.3c-1.8-.1-3.2.1-4.3.6-1.1.5-1.6 1.7-1.6 3.4v10.6h-5.3v.2zm18.7-6.6c0 .9.1 1.9.4 2.8.2.9.7 1.7 1.5 2.4l-4.2 1.8c-1-.7-1.7-1.6-2.1-2.7-.5-1.1-.7-2.3-.7-3.6v-13.5H82v12.8zM79.5 155c.7 0 1.2.2 1.7.7s.7 1.1.7 1.7c0 .7-.2 1.3-.7 1.7-.5.5-1.1.7-1.7.7-.7 0-1.2-.2-1.7-.7s-.7-1-.7-1.7.2-1.2.7-1.7c.4-.4 1-.7 1.7-.7zm8 26.2v-12c0-1.5-.1-2.7-.4-3.6-.3-.9-.6-1.7-1-2.5l4.3-2.3c.9 1.1 1.5 2.2 1.8 3.5 1.6-2 3.5-3 5.6-3 2.3 0 4.1.9 5.4 2.8 1.3-1.9 3.1-2.8 5.5-2.8 1.9 0 3.5.6 4.6 1.7 1.2 1.2 1.7 2.7 1.7 4.6v13.5h-5.1v-12.4c0-2-1-3-2.9-3-1.1 0-1.9.4-2.5 1.1-.6.7-.8 1.6-.8 2.6v11.7h-5v-12.4c0-2-.9-3-2.8-3-1.1 0-1.9.4-2.5 1.1-.5.7-.8 1.6-.8 2.6v11.7l-5.1.1zm41.8-2.6c-.7 1.1-1.6 1.8-2.6 2.2-1.2.4-2.6.7-4.1.7-1.6 0-2.9-.5-3.8-1.5-1-1-1.5-2.4-1.5-4.3s.5-3.3 1.5-4.3c1.2-1.2 2.9-1.9 4.9-2.1 2-.2 3.9-.3 5.4-.3 0-1.9-.7-3-1.8-3.3-1.2-.4-2.5-.2-4 .5l-2.5-3.3c1.3-.7 2.7-1.2 4.2-1.5 1.6-.2 3-.2 4.4.1s2.5 1 3.5 2c.9 1 1.4 2.4 1.4 4.3v9c0 1.1.4 2 1 2.7l-4.3 1.9c-.4-.4-.8-.8-1-1.3-.5-.4-.7-1-.7-1.5zm-.2-6.9c-1.8.1-3.5.4-4.9.9-1.5.5-2.2 1.5-2.1 3s.9 2.2 2.6 2.2c1.9 0 3.1-.6 3.6-1.9.6-1.2.8-2.6.8-4.2zm15.6-6.2v9.1c0 1 .1 1.9.4 2.8.3.9.7 1.7 1.5 2.4l-4.2 1.9c-1.8-1.5-2.8-3.5-2.8-6v-10.2H137v-3.6h2.6v-5.3h5.1v5.3h3v3.6h-3zM166 178c-.5.7-.9 1.2-1.3 1.6-1.5 1.4-3.6 2.1-6.1 2.1-2.8 0-5-.9-6.6-2.7s-2.4-4.3-2.4-7.5.8-5.7 2.4-7.5c1.6-1.8 3.9-2.7 6.7-2.7 2.5 0 4.5.7 6 2 .4.3.8.8 1.2 1.3l-4.4 2.4c0-.1-.2-.3-.5-.6-.6-.5-1.4-.8-2.3-.8-1.3 0-2.2.5-2.9 1.5-.6 1-1 2.5-1 4.5 0 1.8.3 3.2 1 4.2.6 1 1.6 1.5 2.8 1.5.9 0 1.6-.3 2.3-.8.2-.2.4-.5.6-.8l4.5 2.3zm6.9-6.6c0 1.9.4 3.4 1.2 4.4s1.9 1.5 3.4 1.5c1.4 0 2.5-.5 3.3-1.5s1.2-2.5 1.2-4.4-.4-3.3-1.2-4.3-1.9-1.5-3.3-1.5c-1.5 0-2.6.5-3.4 1.5-.8 1.1-1.2 2.5-1.2 4.3zm-5.3 0c0-3.2.9-5.7 2.6-7.4 1.7-1.8 4.1-2.7 7.2-2.7 3 0 5.4.9 7.1 2.7 1.7 1.8 2.6 4.3 2.6 7.4 0 3.2-.9 5.7-2.6 7.5-1.7 1.8-4.1 2.7-7.2 2.7-3.1 0-5.5-.9-7.2-2.7-1.6-1.8-2.5-4.3-2.5-7.5z"/>
	<path fill="#009e53" d="M101.9 64.5c-1.2-.3-2.5-.4-3.8-.4h-.2c-3.7 0-7 1.1-9.9 3.2-.6.4-1.2.9-1.7 1.3 1.9-4.8 2.6-10.4 2-15.2-.1-.8-.3-1.7-.4-2.4-.1-.5-.2-.9-.4-1.4-.3-1-.6-2.1-.9-3.1-1.6-5.1-3.3-10.4-.8-15.3l.3-.5-.6.1c-.1 0-12.8 1.6-19.7 10.9-1.8 2.4-3 5-3.7 8-.3 1.2-.5 2.5-.6 3.8-.2 2.8-.1 5.9.5 9.1 1.2 6.4 4 10.2 6.6 12.4 1.4 1.2 2.8 2 3.6 2.5l-.2 1.3v.5c-.7 3.6-1.3 8.1.4 13.4-.5-.9-1.2-1.8-2-2.8-6.1-7.1-12.3-8.8-16.7-10.1-1-.3-1.9-.5-2.7-.8l-.9-.3c-3-1.1-5.8-2.4-8.1-3.8-1-.6-1.8-1.2-2.6-1.8l-.4-.3-.1.5c0 .1-.1.7-.3 1.6-.1.9-.3 2.3-.4 3.8-.5 6.4-.4 16.9 4.8 22l.1.1c1.5 1.5 3.1 2.7 4.9 3.8 4.2 2.5 9.1 3.8 14.5 3.8 2.9 0 5.8-.4 8.7-1.1-1.6 3.6-4 7.7-7.2 12.4l1.6 1.1c4.2-6.4 7.2-11.6 8.7-16.2.4-1.3.7-2.6.9-3.8.4-2.8.2-5.5-.7-8.3v-.1c1.5.7 4.2 1.5 8.9 2.1.7.1 1.5.1 2.1.1 5.4 0 9.3-3 12.8-6.7 1.3-1.4 2.6-3 3.8-4.6.1-.2.2-.3.3-.4l.2-.2c1-1.3 2.2-2.6 3.4-3.9 1.4-1.4 2.8-2.7 4.1-3.8 2-1.7 3.5-2.8 4-2.8l.5-.3c-1.8-2.7-6.7-6.3-12.7-7.4zm-31 41.3l-1.1.1c-.5-.5-1.1-.9-1.7-1.3-1.3-.8-3.1-1.8-6-3.7-2.3.7-8.5 2.4-11 1 0 0 2.5-.3 5.1-1 1.2-.4 2.5-.8 3.6-1.4-1.2-.8-2.5-1.6-4-2.6l-4.8-3c-.1 0-.2-.1-.2-.2-3 3.1-10.2 2.6-7.1 1.8 2.7-.8 3.9-1.7 5.4-2.9-8.5-6-8.6-9-8.9-13.8 0-.7-.1-1.5-.2-2.3l.1.1c.2.8.3 1.5.5 2.2 1 3.9 2.4 6.3 5.1 9 .5-2.6.5-2.7.7-5.8.2-3.2 1.1 3.9.8 7.1 1.3 1.1 2.8 2.2 4.6 3.5l4.6 2.9c.5.3.9.6 1.4.9-.1-3-1.1-11.5-.5-10.8 2.2 3.2 2.4 9.1 2.4 11.9 2.2 1.3 4 2.4 5.6 3.3.2.1.4.3.6.4 0-.1 0-.2.1-.4.7-3.8 1.3-7 1.5-9.7 0 0 1.6 1.9.5 9.7-.1.5-.2 1-.2 1.5 2 1.2 2.6 1.3 3.4 2.3l-.3 1.2zm1.5-29.5c0-.4.1-.8.1-1.3.2-2 .3-4.9.4-9-1.8-1.7-6.4-6.2-6.5-9.2 0 0 3.3 4.4 6.5 6.3V52.3c-1.6-.4-3.1-1.6-4.2-2.9-1.7-1.9-2.4-3.8-1-2.5 1.3 1.2 2.3 2 3.4 2.5.6.3 1.2.5 1.9.8v-.8c.9-11.3 4-11.8 8.7-15.4l-.1.1c-3.7 3.7-5.4 6.3-6.3 10.7 2.4-.9 2.5-.9 5.2-2.4s-2.7 3-5.5 4.4c-.1.8-.2 1.7-.3 2.7-.1 1-.1 2-.2 3.2v7.2c2.5-1.7 9.1-7 8.7-6.1-1.6 3.6-6.3 6.9-8.7 8.3v7.4c3.8-1.4 6.9-2.7 9.3-3.9 0 0-.9 2.8-9.4 6.2 0 1.2-.1 2.3-.2 3.1-.1 1-.2 1.8-.5 2.4l-1.3-.5c-.1-.1-.1-.3 0-.5zm1.1 3.3l.1-.8.1-.7c1 0 2.5-.3 4.4-1.1-.4.6-.8 1.2-1.1 1.8-1.5 2.7-2.6 5.5-3.8 9.1-.4-3.1-.1-5.8.3-8.3zm38.3-8.7c-4.1-.5-6.9-.5-9.9.7-.7.3-1.5.6-2.2 1 1 .7 1.6 1 2.2 1.3.6.3 1.2.6 2.3 1.1.2.1.3.2.5.2 1.8.8-.2.5-2.7-.2h-.1c-1.4-.4-2.8-.9-3.8-1.4 0 0-.1 0-.1-.1-.7.4-1.4.9-2.2 1.5-.8.5-1.6 1.1-2.5 1.8l-2.5 2-1.8 1.4c-.6.5-1.2 1-1.7 1.4 3.3.5 10.9 1.1 10 1.4-3.5 1.1-9.3.4-11.7 0-1.8 1.4-3.3 2.7-4.7 3.8 2.1 1.2 4.4 2.2 8 4 0 0-1.9 1.6-9.5-2.8-2.5 2-3.3 2.5-4.7 3.1l-1-.9.3-.7c1.9-1.1 3.7-2.3 8.1-5.8.1-1.1.2-3 .5-4.9.2-1.3.5-2.7 1-3.8.4-.9.8-1.7 1.4-2.2 0 0-.2.9-.4 2.2-.2 1.1-.3 2.4-.4 3.8-.1 1.1 0 2.2.1 3.2 1.1-.9 2.4-1.9 3.7-3l.2-.2 3.4-2.7c-.1-.3-.2-.7-.3-1.1-.9-4 1.5-9.2 1.2-6.3-.2 2.8.1 4.3.8 6.1 1.9-1.4 3.5-2.5 4.9-3.3 1.5-.8 2.7-1.4 3.8-1.8 3.8-1.2 6.1.1 10 1.1l-.2.1z"/>
	<path fill="#ffffff" d="M71.2 104.6l-.3 1.2-1.1.1c-.5-.5-1.1-.9-1.7-1.3-1.3-.8-3.1-1.8-6-3.7-2.3.7-8.5 2.4-11 1 0 0 2.5-.3 5.1-1 1.2-.4 2.5-.8 3.6-1.4-1.2-.8-2.5-1.6-4-2.6l-4.8-3c-.1 0-.2-.1-.2-.2-3 3.1-10.2 2.6-7.1 1.8 2.7-.8 3.9-1.7 5.4-2.9-8.5-6-8.6-9-8.9-13.8 0-.7-.1-1.5-.2-2.3l.1.1c.2.8.3 1.5.5 2.2 1 3.9 2.4 6.3 5.1 9 .5-2.6.5-2.7.7-5.8.2-3.2 1.1 3.9.8 7.1 1.3 1.1 2.8 2.2 4.6 3.5l4.6 2.9c.5.3.9.6 1.4.9-.1-3-1.1-11.5-.5-10.8 2.2 3.2 2.4 9.1 2.4 11.9 2.2 1.3 4 2.4 5.6 3.3.2.1.4.3.6.4 0-.1 0-.2.1-.4.7-3.8 1.3-7 1.5-9.7 0 0 1.6 1.9.5 9.7-.1.5-.2 1-.2 1.5 2 1.2 2.6 1.3 3.4 2.3zm3.3-35.1v-7.4c2.4-1.4 7.1-4.7 8.7-8.3.4-.9-6.2 4.4-8.7 6.1v-7.2c.1-1.2.1-2.2.2-3.2s.2-1.9.3-2.7c2.8-1.4 8.2-5.9 5.5-4.4s-2.8 1.5-5.2 2.4c.9-4.4 2.6-7 6.3-10.7l.1-.1c-4.7 3.6-7.8 4.1-8.7 15.4v.8c-.7-.3-1.3-.5-1.9-.8-1.1-.5-2.1-1.3-3.4-2.5-1.4-1.3-.7.6 1 2.5 1.1 1.3 2.6 2.5 4.2 2.9v10.8c-3.2-1.9-6.5-6.3-6.5-6.3.1 3 4.7 7.5 6.5 9.2-.1 4.1-.2 7-.4 9 0 .5-.1.9-.1 1.3-.1.2-.1.4 0 .5l1.3.5c.3-.6.4-1.4.5-2.4.1-.8.2-1.9.2-3.1 8.5-3.4 9.4-6.2 9.4-6.2-2.4 1.2-5.5 2.5-9.3 3.9zm27.5.2c-1.1.4-2.3 1-3.8 1.8-1.4.8-3 1.9-4.9 3.3-.7-1.8-1-3.3-.8-6.1.3-2.9-2.1 2.3-1.2 6.3.1.4.2.8.3 1.1l-3.4 2.7-.2.2c-1.3 1.1-2.6 2.1-3.7 3-.1-1-.2-2.1-.1-3.2.1-1.4.2-2.7.4-3.8.2-1.3.4-2.2.4-2.2-.6.5-1 1.3-1.4 2.2-.5 1.1-.8 2.5-1 3.8-.3 1.9-.4 3.8-.5 4.9-4.4 3.5-6.2 4.7-8.1 5.8l-.3.7 1 .9c1.4-.6 2.2-1.1 4.7-3.1 7.6 4.4 9.5 2.8 9.5 2.8-3.6-1.8-5.9-2.8-8-4 1.4-1.1 2.9-2.4 4.7-3.8 2.4.4 8.2 1.1 11.7 0 .9-.3-6.7-.9-10-1.4.5-.4 1.1-.9 1.7-1.4l1.8-1.4 2.5-2c.9-.7 1.7-1.3 2.5-1.8.8-.6 1.5-1.1 2.2-1.5 0 .1.1.1.1.1 1 .5 2.4 1 3.8 1.4h.1c2.5.7 4.5 1 2.7.2-.2 0-.3-.1-.5-.2-1.1-.5-1.7-.8-2.3-1.1-.6-.3-1.2-.6-2.2-1.3.7-.4 1.5-.7 2.2-1 3-1.2 5.8-1.2 9.9-.7l.2-.1c-3.9-1-6.2-2.3-10-1.1z"/>
	<path d="M163.1 75h-16.4c-.2-7.5-1.3-14.8-3.2-21.7h14.8c2.9 6.7 4.5 14 4.8 21.7zm-24.3-47.7c7.5 5.9 13.7 13.5 17.9 22.2h-14.3c-2.8-8.5-6.9-16.1-12-22.2h8.4zm-21.3 77.3h21c-3 8.9-7.5 16.8-13.3 22.7H104c5.8-6.3 10.4-14 13.5-22.7zM101.9 124v-19.3h11.5c-2.7 7.3-6.6 13.9-11.5 19.3zm37.7-70.7c2 6.8 3.1 14.1 3.3 21.7h-20.8c-.2-7.5-1.4-14.8-3.5-21.7h21zm-22.3-3.8c-3.1-8.5-7.6-16.1-13.3-22.2h21.2c5.6 5.8 10.1 13.5 13.1 22.2h-21zm1.5 51.3c2.1-7 3.2-14.4 3.4-22H143c-.1 7.7-1.2 15.1-3.2 22h-21zm14.6-77.3h-11.9c2.3-.9 4.5-1.9 6.7-3 1.8.9 3.5 1.9 5.2 3zm-31.5-9.6c7.7.2 15 1.8 21.8 4.6-6.6 3-14.1 4.7-21.8 4.9v-9.5zm0 16.7c4.8 5.3 8.6 11.7 11.4 18.9h-11.4V30.6zm-3.8-16.7v9.5c-7.7-.3-15.1-2-21.6-5 6.7-2.7 14-4.3 21.6-4.5zM72 20.4c2.2 1.2 4.5 2.2 6.9 3.1H66.6c1.7-1.1 3.5-2.1 5.4-3.1zm26.1 120.4c-7.9-.2-15.4-1.9-22.3-4.8 6.8-3 14.4-4.7 22.3-4.9v9.7zm0-52.9v12.9H75c-.2 1.2-.5 2.5-.9 3.8h24v22.7H61c-7.6-6-13.8-13.8-18-22.7h4.9c-1.8-1-3.4-2.3-4.9-3.8l-.1-.1h-1.6c-2.7-6.8-4.3-14.2-4.4-22h1.3c.1-1.5.3-2.9.4-3.8H37c.3-7.6 1.9-14.9 4.6-21.7h19.8c.1-1.3.3-2.6.6-3.8H43.3c4.2-8.7 10.4-16.3 17.9-22.2h36.9v22.2H87.4c.1.5.2.9.4 1.4.2.8.3 1.6.4 2.4h9.9V64c1.3 0 2.6.2 3.8.4V53.3h12.7c2.2 6.8 3.5 14.1 3.7 21.7H110c-1.3 1.1-2.7 2.4-4.1 3.8h12.4c-.1 7.7-1.4 15.1-3.5 22h-12.9V83.3c-1.2 1.6-2.5 3.1-3.8 4.6zm3.8 52.9v-9.6c7.7.3 15 2.1 21.5 5.1-6.7 2.7-13.9 4.3-21.5 4.5zm26-6.5c-2.3-1.3-4.8-2.3-7.3-3.3h13c-1.8 1.3-3.7 2.3-5.7 3.3zm10.9-6.9v-.2h-8.4c5.2-6.2 9.3-14 12.1-22.7H157c-4.2 9.1-10.5 16.9-18.2 22.9zm4.9-26.6c1.9-7 2.9-14.4 3-22h16.4c-.2 7.8-1.7 15.2-4.4 22h-15zM72.1 77.4l-.1 1.4H50c-3-1.1-5.8-2.4-8.1-3.8h26.6c1.5 1.2 2.8 2 3.6 2.4zm6.1-.4c-.4.6-.8 1.2-1.1 1.8h-3.4l.1-.7c.9 0 2.5-.3 4.4-1.1zm82.9-27.1v-.4h-.2C150.4 26.2 127 10 100 10c-15.1 0-29 5-40.2 13.5h-.3v.3c-16 12.3-26.4 31.7-26.4 53.5 0 21.9 10.4 41.3 26.5 53.6v.1h.1c11.2 8.5 25.2 13.6 40.3 13.6 36.9 0 66.9-30.2 66.9-67.4 0-9.6-2.1-18.9-5.8-27.3zM71.4 134c-1.8-.9-3.4-1.9-5.1-2.9h11.6c-2.3.8-4.4 1.8-6.5 2.9z"/>
</svg>
